<?xml version="1.0" encoding="utf-8"?>
<!-- Generator: Adobe Illustrator 19.2.1, SVG Export Plug-In . SVG Version: 6.00 Build 0)  -->
<svg version="1.1" id="Layer_1" xmlns="http://www.w3.org/2000/svg" xmlns:xlink="http://www.w3.org/1999/xlink" x="0px" y="0px"
	 viewBox="0 0 24 24" enable-background="new 0 0 24 24" xml:space="preserve">
<rect x="0" y="-215.2" fill="none" width="47.9" height="10.7"/>
<text transform="matrix(1 0 0 1 -3.099405e-02 -206.6201)" font-family="'HelvNeueRomanforIBM'" font-size="12px">Storage</text>
<polygon fill="#8CD211" points="26,-23.6 17,-18.8 17,-27.8 26,-32.6 "/>
<polygon fill="#20343e" points="14.9,-19 6.9,-23.2 6.9,-32.1 14.9,-27.9 "/>
<polygon fill="#5AAAFA" points="31,-36.2 22.2,-40.7 19.2,-39.2 27.8,-34.7 27.8,-18.1 31,-19.8 "/>
<polygon fill="#8CD211" points="26,-21.2 16,-16 1,-24 1,-19.8 16,-12.1 26,-17.2 "/>
<polygon fill="#20343e" points="20.1,-41.7 15.9,-43.9 1,-36.1 1,-26.2 5,-24.1 5,-33.9 "/>
<polygon fill="#5AAAFA" points="16.1,-29.7 8.4,-33.6 17.1,-38.1 24.7,-34.2 "/>
<polygon fill="#8CD211" points="19.1,14.9 13.1,18.1 13.1,12.2 19.1,9 "/>
<polygon fill="#20343e" points="11.1,18.4 5.3,15.4 5.3,9.2 11.1,12.2 "/>
<polygon fill="#5AAAFA" points="23.3,5.9 16.9,2.6 14.7,3.8 21.2,7.1 21.1,19.4 23.3,18.2 "/>
<polygon fill="#8CD211" points="19.2,17.1 12,21 0.7,15.4 0.7,18.2 12,24 19.2,20.3 "/>
<polygon fill="#20343e" points="15.1,1.8 12,0.1 0.7,5.9 0.7,13 3.3,14.4 3.3,7.8 "/>
<polygon fill="#5AAAFA" points="12,10.5 6.9,7.8 12.8,4.7 17.8,7.4 "/>
<polygon fill="#8CD211" points="41.2,-74.3 26.3,-66.6 26.3,-81.9 41.2,-89.6 "/>
<polygon fill="#20343e" points="23.9,-66.7 10.2,-73.7 10.2,-89 23.9,-81.8 "/>
<polygon fill="#5AAAFA" points="48.5,-94 34.1,-101.4 29.4,-98.9 43.4,-91.7 43.4,-65.8 48.5,-68.5 "/>
<polygon fill="#8CD211" points="41.1,-71.7 25.1,-63.4 1.5,-75.6 1.5,-68.4 25,-56.3 41.1,-64.6 "/>
<polygon fill="#20343e" points="31.5,-102.7 24.9,-106.1 1.5,-94 1.5,-78.2 7.8,-75 7.8,-90.5 "/>
<polygon fill="#5AAAFA" points="25.1,-83.8 12.6,-90.3 26.8,-97.6 39.3,-91.2 "/>
<polygon fill="#8CD211" points="52.8,-139.4 33.9,-129.6 33.9,-149 52.8,-158.9 "/>
<polygon fill="#20343e" points="30.8,-129.6 13.4,-138.6 13.4,-158 30.8,-149 "/>
<polygon fill="#5AAAFA" points="62.2,-164.4 43.9,-173.8 37.8,-170.7 55.7,-161.5 55.7,-128.6 62.2,-131.9 "/>
<polygon fill="#8CD211" points="52.8,-136.1 32.4,-125.5 2.4,-141 2.3,-131.8 32.2,-116.5 52.8,-127 "/>
<polygon fill="#20343e" points="40.5,-175.5 32.2,-179.8 2.4,-164.4 2.3,-144.3 10.4,-140.2 10.4,-159.9 "/>
<polygon fill="#5AAAFA" points="32.4,-151.5 16.5,-159.7 34.6,-169 50.4,-160.8 "/>
<rect x="1" y="-194.6" fill="none" width="56.4" height="9.3"/>
<text transform="matrix(1 0 0 1 1.0267 -188.8738)" font-family="'HelvNeueRomanforIBM'" font-size="8px">Object Storage</text>
</svg>
