<?xml version="1.0" encoding="UTF-8"?>
<svg id="postgresql-light" data-name="postgresql-light" xmlns="http://www.w3.org/2000/svg" xmlns:xlink="http://www.w3.org/1999/xlink" viewBox="0 0 32 32">
  <defs>
    <style>
      .cls-1-postgresql-light {
        mask: url(#mask-postgresql-light);
      }

      .cls-2-postgresql-light {
        fill: url(#linear-gradient-postgresql-light);
      }

      .cls-2-postgresql-light, .cls-3-postgresql-light {
        stroke-width: 0px;
      }

      .cls-3-postgresql-light {
        fill: #fff;
      }
    </style>
    <mask id="mask-postgresql-light" x="0" y="0" width="32" height="32" maskUnits="userSpaceOnUse">
      <g>
        <path class="cls-3-postgresql-light" d="m4.6,24V7.95h7.22c.74,0,1.4.12,1.99.36.59.24,1.09.57,1.51,1.01.41.44.73.96.94,1.58s.32,1.29.32,2.02-.11,1.43-.32,2.04c-.21.61-.53,1.13-.94,1.56-.41.44-.92.77-1.51,1.01-.59.24-1.25.36-1.99.36h-4.19v6.12h-3.04Zm3.04-8.74h3.91c.58,0,1.04-.16,1.38-.47.34-.31.51-.76.51-1.35v-1.06c0-.58-.17-1.03-.51-1.33-.34-.31-.8-.46-1.38-.46h-3.91v4.67Z"/>
        <path class="cls-3-postgresql-light" d="m29.28,25.01c0,.63-.11,1.18-.33,1.67-.22.48-.59.89-1.09,1.21-.51.32-1.16.57-1.96.74-.8.17-1.77.25-2.92.25-1.01,0-1.87-.07-2.58-.2-.71-.13-1.28-.31-1.74-.55-.45-.24-.78-.53-.98-.89-.2-.35-.3-.75-.3-1.2,0-.67.19-1.2.56-1.58.38-.38.9-.62,1.58-.72v-.25c-.49-.12-.87-.37-1.14-.73-.27-.36-.4-.79-.4-1.28,0-.31.06-.58.18-.82.12-.24.29-.44.5-.61.21-.17.44-.31.7-.43.26-.12.54-.2.83-.27v-.09c-.74-.34-1.28-.8-1.64-1.4s-.54-1.29-.54-2.09c0-1.23.42-2.21,1.27-2.95.84-.74,2.08-1.12,3.7-1.12.37,0,.73.02,1.09.07s.69.12,1,.23v-.39c0-1.17.57-1.75,1.7-1.75h1.86v2.25h-2.55v.32c.63.35,1.1.81,1.4,1.38.31.57.46,1.22.46,1.96,0,1.21-.42,2.19-1.25,2.92s-2.07,1.1-3.71,1.1c-.71,0-1.32-.07-1.84-.21-.23.11-.43.25-.6.43-.17.18-.25.39-.25.65,0,.6.52.9,1.56.9h3.22c1.47,0,2.54.3,3.21.91s1,1.45,1,2.52Zm-2.76.35c0-.38-.15-.68-.46-.9-.31-.21-.84-.32-1.59-.32h-4.09c-.41.31-.62.72-.62,1.24,0,.46.19.82.58,1.08.38.26,1.04.39,1.96.39h1.47c.97,0,1.67-.12,2.1-.37.44-.25.66-.62.66-1.13Zm-3.54-7.57c1.44,0,2.16-.61,2.16-1.83v-.39c0-1.22-.72-1.83-2.16-1.83s-2.16.61-2.16,1.83v.39c0,1.22.72,1.83,2.16,1.83Z"/>
      </g>
    </mask>
    <linearGradient id="linear-gradient-postgresql-light" x1="0" y1="32" x2="32" y2="0" gradientUnits="userSpaceOnUse">
      <stop offset=".1" stop-color="#a56eff"/>
      <stop offset=".9" stop-color="#0043ce"/>
    </linearGradient>
  </defs>
  <g id="Light_theme_icons" data-name="Light theme icons">
    <g class="cls-1-postgresql-light">
      <rect id="Color" class="cls-2-postgresql-light" width="32" height="32"/>
    </g>
  </g>
</svg>