<?xml version="1.0" encoding="UTF-8"?>
<svg id="mongodb-light" data-name="mongodb-light" xmlns="http://www.w3.org/2000/svg" xmlns:xlink="http://www.w3.org/1999/xlink" viewBox="0 0 32 32">
  <defs>
    <style>
      .cls-1-mongodb-light {
        mask: url(#mask-mongodb-light);
      }

      .cls-2-mongodb-light {
        fill: url(#linear-gradient-mongodb-light);
      }

      .cls-2-mongodb-light, .cls-3-mongodb-light {
        stroke-width: 0px;
      }

      .cls-3-mongodb-light {
        fill: #fff;
      }
    </style>
    <mask id="mask-mongodb-light" x="0" y="0" width="32" height="32" maskUnits="userSpaceOnUse">
      <g>
        <path class="cls-3-mongodb-light" d="m14.36,12.48h-.09l-1.24,2.55-3.29,6.07-3.29-6.07-1.24-2.55h-.09v11.52h-2.88V7.95h3.43l4.12,7.84h.09l4.07-7.84h3.29v16.05h-2.88v-11.52Z"/>
        <path class="cls-3-mongodb-light" d="m31.65,25.01c0,.63-.11,1.18-.33,1.67-.22.48-.59.89-1.09,1.21-.51.32-1.16.57-1.96.74-.8.17-1.77.25-2.92.25-1.01,0-1.87-.07-2.58-.2-.71-.13-1.28-.31-1.74-.55-.45-.24-.78-.53-.98-.89-.2-.35-.3-.75-.3-1.2,0-.67.19-1.2.56-1.58s.9-.62,1.58-.72v-.25c-.49-.12-.87-.37-1.14-.73-.27-.36-.4-.79-.4-1.28,0-.31.06-.58.18-.82.12-.24.29-.44.5-.61s.44-.31.7-.43.54-.2.83-.26v-.09c-.74-.34-1.28-.8-1.64-1.4s-.54-1.29-.54-2.09c0-1.23.42-2.21,1.27-2.95.84-.74,2.08-1.12,3.7-1.12.37,0,.73.02,1.09.07s.69.12,1,.23v-.39c0-1.17.57-1.75,1.7-1.75h1.86v2.25h-2.55v.32c.63.35,1.1.81,1.4,1.38.31.57.46,1.22.46,1.96,0,1.21-.42,2.18-1.25,2.92-.84.74-2.07,1.1-3.71,1.1-.71,0-1.32-.07-1.84-.21-.23.11-.43.25-.6.43-.17.18-.25.39-.25.66,0,.6.52.9,1.56.9h3.22c1.47,0,2.54.3,3.21.91.67.61,1,1.45,1,2.52Zm-2.76.35c0-.38-.15-.68-.46-.9-.31-.21-.84-.32-1.59-.32h-4.09c-.41.31-.62.72-.62,1.24,0,.46.19.82.58,1.08.38.26,1.04.39,1.96.39h1.47c.97,0,1.67-.12,2.1-.37.44-.25.66-.62.66-1.13Zm-3.54-7.57c1.44,0,2.16-.61,2.16-1.83v-.39c0-1.22-.72-1.83-2.16-1.83s-2.16.61-2.16,1.83v.39c0,1.22.72,1.83,2.16,1.83Z"/>
      </g>
    </mask>
    <linearGradient id="linear-gradient-mongodb-light" x1="0" y1="32" x2="32" y2="0" gradientUnits="userSpaceOnUse">
      <stop offset=".1" stop-color="#009d9a"/>
      <stop offset=".9" stop-color="#24a148"/>
    </linearGradient>
  </defs>
  <g id="Light_theme_icons" data-name="Light theme icons">
    <g class="cls-1-mongodb-light">
      <rect id="Color" class="cls-2-mongodb-light" width="32" height="32"/>
    </g>
  </g>
</svg>